<svg width="64" height="50" viewBox="0 0 64 50" fill="none" xmlns="http://www.w3.org/2000/svg">
<path d="M0 5.58398H63.313V49.355H0V5.58398Z" fill="#E8E8E8"/>
<path d="M0 0H63.313V5.583H0V0Z" fill="#F4F4F4"/>
<path d="M3.8522 4.11102C4.58067 4.11102 5.1712 3.52049 5.1712 2.79202C5.1712 2.06356 4.58067 1.47302 3.8522 1.47302C3.12374 1.47302 2.5332 2.06356 2.5332 2.79202C2.5332 3.52049 3.12374 4.11102 3.8522 4.11102Z" fill="#E84118"/>
<path d="M8.38931 4.11102C9.11778 4.11102 9.70831 3.52049 9.70831 2.79202C9.70831 2.06356 9.11778 1.47302 8.38931 1.47302C7.66085 1.47302 7.07031 2.06356 7.07031 2.79202C7.07031 3.52049 7.66085 4.11102 8.38931 4.11102Z" fill="#00A8FF"/>
<path d="M12.9264 4.11102C13.6549 4.11102 14.2454 3.52049 14.2454 2.79202C14.2454 2.06356 13.6549 1.47302 12.9264 1.47302C12.198 1.47302 11.6074 2.06356 11.6074 2.79202C11.6074 3.52049 12.198 4.11102 12.9264 4.11102Z" fill="#44BD32"/>
<path d="M7.58594 25.751H55.7279V33.951H7.58594V25.751Z" fill="#D1D8E0"/>
<path d="M34.8203 37.553H49.7323V41.653H34.8203V37.553Z" fill="#A5B1C2"/>
<path d="M13.5801 37.553H28.4881V41.653H13.5801V37.553Z" fill="#778CA3"/>
<path d="M29.519 18.416C29.5206 18.9003 29.3784 19.3742 29.1104 19.7777C28.8425 20.1812 28.4608 20.4961 28.0137 20.6825C27.5667 20.8689 27.0744 20.9184 26.5992 20.8248C26.1239 20.7313 25.6872 20.4987 25.3442 20.1567C25.0012 19.8147 24.7674 19.3786 24.6725 18.9037C24.5775 18.4287 24.6257 17.9363 24.8108 17.4887C24.9959 17.0411 25.3097 16.6586 25.7124 16.3894C26.1151 16.1203 26.5886 15.9768 27.073 15.977C27.395 15.972 27.7147 16.0316 28.0133 16.1524C28.3118 16.2731 28.5831 16.4524 28.8112 16.6798C29.0392 16.9072 29.2193 17.178 29.3409 17.4762C29.4625 17.7744 29.523 18.094 29.519 18.416ZM28.448 18.416C28.4287 18.1482 28.3317 17.8918 28.1688 17.6784C28.0059 17.4649 27.7842 17.3037 27.531 17.2144C27.2778 17.1251 27.004 17.1117 26.7433 17.1759C26.4825 17.24 26.2462 17.3788 26.0632 17.5753C25.8803 17.7718 25.7587 18.0175 25.7133 18.2821C25.668 18.5468 25.7009 18.8189 25.808 19.0651C25.9151 19.3113 26.0918 19.5209 26.3163 19.6681C26.5409 19.8154 26.8035 19.8939 27.072 19.894C27.2606 19.8912 27.4468 19.8503 27.6192 19.7737C27.7917 19.6971 27.9469 19.5865 28.0755 19.4485C28.2041 19.3104 28.3035 19.1478 28.3677 18.9704C28.4319 18.7929 28.4595 18.6044 28.449 18.416H28.448Z" fill="#4B6584"/>
<path d="M34.7983 18.416C34.7999 18.9003 34.6577 19.3742 34.3898 19.7776C34.1219 20.1811 33.7403 20.496 33.2933 20.6824C32.8463 20.8689 32.354 20.9184 31.8788 20.8249C31.4036 20.7314 30.9669 20.499 30.6238 20.1571C30.2808 19.8152 30.047 19.3792 29.9519 18.9043C29.8568 18.4294 29.9048 17.937 30.0898 17.4894C30.2748 17.0418 30.5884 16.6592 30.991 16.3899C31.3936 16.1207 31.867 15.977 32.3513 15.977C32.6734 15.9719 32.9932 16.0314 33.2919 16.1521C33.5905 16.2727 33.862 16.4521 34.0901 16.6795C34.3182 16.9069 34.4985 17.1777 34.6201 17.476C34.7418 17.7743 34.8023 18.0939 34.7983 18.416ZM33.7263 18.416C33.707 18.1481 33.6099 17.8917 33.447 17.6783C33.2841 17.4648 33.0624 17.3036 32.8091 17.2143C32.5558 17.1251 32.282 17.1118 32.0212 17.176C31.7605 17.2402 31.5241 17.3791 31.3412 17.5757C31.1583 17.7723 31.0368 18.0181 30.9915 18.2828C30.9463 18.5475 30.9794 18.8196 31.0866 19.0658C31.1939 19.312 31.3707 19.5215 31.5954 19.6686C31.82 19.8157 32.0827 19.8941 32.3513 19.894C32.5399 19.891 32.7259 19.85 32.8982 19.7734C33.0706 19.6968 33.2256 19.5862 33.3541 19.4481C33.4827 19.3101 33.5819 19.1475 33.6461 18.9701C33.7102 18.7928 33.7368 18.6043 33.7263 18.416Z" fill="#4B6584"/>
<path d="M39.857 16.129V20.508C39.9033 20.8332 39.8771 21.1646 39.7802 21.4785C39.6833 21.7924 39.5182 22.0809 39.2966 22.3234C39.075 22.5659 38.8025 22.7564 38.4987 22.8811C38.1948 23.0059 37.8671 23.0618 37.539 23.045C37.0765 23.0479 36.6237 22.9127 36.2385 22.6567C35.8534 22.4007 35.5534 22.0355 35.377 21.608L36.315 21.216C36.4103 21.4659 36.5779 21.6817 36.7965 21.8358C37.0151 21.9899 37.2746 22.0752 37.542 22.081C38.342 22.081 38.842 21.581 38.842 20.651V20.3H38.804C38.6431 20.4801 38.4449 20.6229 38.2231 20.7186C38.0014 20.8143 37.7614 20.8605 37.52 20.854C36.8924 20.8256 36.2999 20.5562 35.8658 20.102C35.4317 19.6478 35.1895 19.0438 35.1895 18.4155C35.1895 17.7872 35.4317 17.1831 35.8658 16.7289C36.2999 16.2747 36.8924 16.0054 37.52 15.977C37.7605 15.9712 37.9994 16.0168 38.2209 16.1108C38.4423 16.2048 38.6411 16.345 38.804 16.522H38.842V16.122L39.857 16.129ZM38.917 18.429C38.9323 18.2452 38.9104 18.0603 38.8527 17.8851C38.795 17.71 38.7027 17.5482 38.5812 17.4095C38.4597 17.2708 38.3116 17.1579 38.1456 17.0776C37.9796 16.9973 37.7992 16.9511 37.615 16.942C37.244 16.9725 36.8981 17.1415 36.6459 17.4153C36.3937 17.6891 36.2537 18.0477 36.2537 18.42C36.2537 18.7922 36.3937 19.1509 36.6459 19.4247C36.8981 19.6985 37.244 19.8674 37.615 19.898C37.7979 19.8901 37.9774 19.8454 38.1426 19.7667C38.3079 19.6879 38.4556 19.5766 38.5769 19.4395C38.6983 19.3024 38.7907 19.1423 38.8488 18.9687C38.9069 18.795 38.9294 18.6115 38.915 18.429H38.917Z" fill="#4B6584"/>
<path d="M41.5382 13.563V20.71H40.4902V13.563H41.5382Z" fill="#4B6584"/>
<path d="M45.6046 19.224L46.4356 19.778C46.2129 20.1124 45.9107 20.3862 45.556 20.5748C45.2013 20.7635 44.8054 20.8612 44.4036 20.859C44.0827 20.8637 43.7641 20.8035 43.4669 20.6822C43.1698 20.5608 42.9001 20.3808 42.6742 20.1528C42.4483 19.9248 42.2706 19.6535 42.152 19.3553C42.0333 19.057 41.9761 18.7379 41.9836 18.417C41.9673 18.1041 42.0145 17.7911 42.1225 17.497C42.2305 17.2028 42.3971 16.9336 42.612 16.7057C42.827 16.4777 43.086 16.2957 43.3733 16.1706C43.6606 16.0455 43.9703 15.98 44.2836 15.978C44.7496 15.9904 45.2004 16.1463 45.5745 16.4244C45.9485 16.7025 46.2276 17.0894 46.3736 17.532L46.4846 17.809L43.2256 19.159C43.3259 19.3862 43.4921 19.5781 43.7026 19.7099C43.9132 19.8416 44.1584 19.9072 44.4066 19.898C44.6479 19.8994 44.8854 19.838 45.0958 19.7198C45.3062 19.6017 45.4823 19.4308 45.6066 19.224H45.6046ZM43.0466 18.346L45.2256 17.446C45.1421 17.2804 45.0117 17.143 44.8505 17.051C44.6894 16.9591 44.5047 16.9166 44.3196 16.929C44.1422 16.9372 43.9682 16.9806 43.8077 17.0567C43.6473 17.1329 43.5036 17.2402 43.3851 17.3725C43.2666 17.5048 43.1756 17.6594 43.1175 17.8272C43.0594 17.995 43.0353 18.1728 43.0466 18.35V18.346Z" fill="#4B6584"/>
<path d="M20.6737 17.787V16.752H24.1607C24.2514 17.2901 24.2228 17.8417 24.0768 18.3675C23.9307 18.8934 23.6709 19.3807 23.3157 19.795C22.976 20.1492 22.5648 20.4272 22.1095 20.6104C21.6542 20.7937 21.1651 20.8781 20.6747 20.858C20.1723 20.8662 19.6733 20.7743 19.2067 20.5876C18.7401 20.401 18.3154 20.1234 17.9572 19.771C17.599 19.4186 17.3145 18.9984 17.1204 18.5349C16.9262 18.0715 16.8262 17.574 16.8262 17.0715C16.8262 16.569 16.9262 16.0715 17.1204 15.6081C17.3145 15.1446 17.599 14.7244 17.9572 14.372C18.3154 14.0196 18.7401 13.742 19.2067 13.5554C19.6733 13.3687 20.1723 13.2768 20.6747 13.285C21.1557 13.2769 21.6335 13.365 22.08 13.5441C22.5265 13.7232 22.9327 13.9897 23.2747 14.328L22.5447 15.058C22.0443 14.5756 21.3737 14.3101 20.6787 14.319C19.9578 14.3327 19.271 14.6288 18.766 15.1435C18.2611 15.6582 17.9782 16.3504 17.9782 17.0715C17.9782 17.7926 18.2611 18.4848 18.766 18.9995C19.271 19.5142 19.9578 19.8103 20.6787 19.824C21.0328 19.8384 21.3861 19.7784 21.7156 19.6478C22.0451 19.5173 22.3436 19.3191 22.5917 19.066C22.9163 18.714 23.1134 18.2633 23.1517 17.786L20.6737 17.787Z" fill="#4B6584"/>
<path d="M0 48.092H63.313V49.358H0V48.092Z" fill="#D1D8E0"/>
</svg>
